<mxfile host="app.diagrams.net" modified="2023-01-12T16:48:19.092Z" agent="5.0 (Windows NT 10.0; Win64; x64) AppleWebKit/537.36 (KHTML, like Gecko) Chrome/108.0.0.0 Safari/537.36" etag="Hl4mhE5Dn4A3SQczACM-" version="20.2.3" type="github">
  <diagram id="kgpKYQtTHZ0yAKxKKP6v" name="Page-1">
    <mxGraphModel dx="2204" dy="718" grid="1" gridSize="10" guides="1" tooltips="1" connect="1" arrows="1" fold="1" page="1" pageScale="1" pageWidth="850" pageHeight="1100" math="0" shadow="0">
      <root>
        <mxCell id="0" />
        <mxCell id="1" parent="0" />
        <mxCell id="3nuBFxr9cyL0pnOWT2aG-1" value="客户端" style="shape=umlLifeline;perimeter=lifelinePerimeter;container=1;collapsible=0;recursiveResize=0;rounded=0;shadow=0;strokeWidth=1;fontStyle=1" parent="1" vertex="1">
          <mxGeometry x="120" y="80" width="100" height="560" as="geometry" />
        </mxCell>
        <mxCell id="3nuBFxr9cyL0pnOWT2aG-2" value="" style="points=[];perimeter=orthogonalPerimeter;rounded=0;shadow=0;strokeWidth=1;" parent="3nuBFxr9cyL0pnOWT2aG-1" vertex="1">
          <mxGeometry x="45" y="70" width="10" height="490" as="geometry" />
        </mxCell>
        <mxCell id="3nuBFxr9cyL0pnOWT2aG-4" value="" style="points=[];perimeter=orthogonalPerimeter;rounded=0;shadow=0;strokeWidth=1;" parent="3nuBFxr9cyL0pnOWT2aG-1" vertex="1">
          <mxGeometry x="50" y="80" width="10" height="80" as="geometry" />
        </mxCell>
        <mxCell id="3nuBFxr9cyL0pnOWT2aG-8" value="1、未登录钱包" style="verticalAlign=bottom;endArrow=block;shadow=0;strokeWidth=1;exitX=1.069;exitY=0.115;exitDx=0;exitDy=0;exitPerimeter=0;" parent="3nuBFxr9cyL0pnOWT2aG-1" source="3nuBFxr9cyL0pnOWT2aG-4" target="3nuBFxr9cyL0pnOWT2aG-4" edge="1">
          <mxGeometry relative="1" as="geometry">
            <mxPoint x="155" y="80" as="sourcePoint" />
            <Array as="points">
              <mxPoint x="90" y="89" />
              <mxPoint x="90" y="132" />
              <mxPoint x="90" y="140" />
            </Array>
          </mxGeometry>
        </mxCell>
        <mxCell id="3nuBFxr9cyL0pnOWT2aG-5" value="服务端" style="shape=umlLifeline;perimeter=lifelinePerimeter;container=1;collapsible=0;recursiveResize=0;rounded=0;shadow=0;strokeWidth=1;fontStyle=1" parent="1" vertex="1">
          <mxGeometry x="300" y="80" width="100" height="560" as="geometry" />
        </mxCell>
        <mxCell id="3nuBFxr9cyL0pnOWT2aG-6" value="" style="points=[];perimeter=orthogonalPerimeter;rounded=0;shadow=0;strokeWidth=1;" parent="3nuBFxr9cyL0pnOWT2aG-5" vertex="1">
          <mxGeometry x="45" y="80" width="10" height="480" as="geometry" />
        </mxCell>
        <mxCell id="D9tDxCpBudC2g4aELNdZ-12" value="3、发红包" style="verticalAlign=bottom;endArrow=open;endSize=8;shadow=0;strokeWidth=1;exitX=1.027;exitY=0.318;exitDx=0;exitDy=0;exitPerimeter=0;entryX=0.008;entryY=0.333;entryDx=0;entryDy=0;entryPerimeter=0;" edge="1" parent="3nuBFxr9cyL0pnOWT2aG-5" target="3nuBFxr9cyL0pnOWT2aG-6">
          <mxGeometry relative="1" as="geometry">
            <mxPoint x="40" y="240" as="targetPoint" />
            <mxPoint x="-125.00000000000003" y="240.58999999999986" as="sourcePoint" />
          </mxGeometry>
        </mxCell>
        <mxCell id="3nuBFxr9cyL0pnOWT2aG-7" value="8、完成支付（交易中）、返回Tx Hash" style="verticalAlign=bottom;endArrow=open;dashed=1;endSize=8;exitX=0.033;exitY=0.767;shadow=0;strokeWidth=1;exitDx=0;exitDy=0;exitPerimeter=0;" parent="1" edge="1">
          <mxGeometry relative="1" as="geometry">
            <mxPoint x="175" y="482.8399999999999" as="targetPoint" />
            <mxPoint x="545.3299999999999" y="482.8399999999999" as="sourcePoint" />
          </mxGeometry>
        </mxCell>
        <mxCell id="3nuBFxr9cyL0pnOWT2aG-9" value="2、登录成功" style="verticalAlign=bottom;endArrow=block;shadow=0;strokeWidth=1;exitX=-0.1;exitY=0.378;exitDx=0;exitDy=0;exitPerimeter=0;entryX=0.971;entryY=0.28;entryDx=0;entryDy=0;entryPerimeter=0;dashed=1;" parent="1" target="3nuBFxr9cyL0pnOWT2aG-2" edge="1">
          <mxGeometry relative="1" as="geometry">
            <mxPoint x="544.0000000000005" y="286.20000000000005" as="sourcePoint" />
            <mxPoint x="169.66666666666652" y="286.20000000000005" as="targetPoint" />
          </mxGeometry>
        </mxCell>
        <mxCell id="3nuBFxr9cyL0pnOWT2aG-10" value="1、登录钱包" style="verticalAlign=bottom;endArrow=open;endSize=8;shadow=0;strokeWidth=1;exitX=1.027;exitY=0.318;exitDx=0;exitDy=0;exitPerimeter=0;entryX=0.028;entryY=0.298;entryDx=0;entryDy=0;entryPerimeter=0;" parent="1" edge="1">
          <mxGeometry relative="1" as="geometry">
            <mxPoint x="545.2799999999997" y="255.19999999999993" as="targetPoint" />
            <mxPoint x="175.26999999999998" y="256.3799999999999" as="sourcePoint" />
          </mxGeometry>
        </mxCell>
        <mxCell id="D9tDxCpBudC2g4aELNdZ-1" value="钱包" style="shape=umlLifeline;perimeter=lifelinePerimeter;container=1;collapsible=0;recursiveResize=0;rounded=0;shadow=0;strokeWidth=1;fontStyle=1" vertex="1" parent="1">
          <mxGeometry x="500" y="80" width="100" height="560" as="geometry" />
        </mxCell>
        <mxCell id="D9tDxCpBudC2g4aELNdZ-2" value="" style="points=[];perimeter=orthogonalPerimeter;rounded=0;shadow=0;strokeWidth=1;" vertex="1" parent="D9tDxCpBudC2g4aELNdZ-1">
          <mxGeometry x="45" y="40" width="10" height="520" as="geometry" />
        </mxCell>
        <mxCell id="D9tDxCpBudC2g4aELNdZ-3" value="区块链（合约）" style="shape=umlLifeline;perimeter=lifelinePerimeter;container=1;collapsible=0;recursiveResize=0;rounded=0;shadow=0;strokeWidth=1;fontStyle=1" vertex="1" parent="1">
          <mxGeometry x="690" y="80" width="100" height="560" as="geometry" />
        </mxCell>
        <mxCell id="D9tDxCpBudC2g4aELNdZ-4" value="" style="points=[];perimeter=orthogonalPerimeter;rounded=0;shadow=0;strokeWidth=1;" vertex="1" parent="D9tDxCpBudC2g4aELNdZ-3">
          <mxGeometry x="45" y="80" width="10" height="480" as="geometry" />
        </mxCell>
        <mxCell id="D9tDxCpBudC2g4aELNdZ-5" value="用户" style="shape=umlLifeline;perimeter=lifelinePerimeter;container=1;collapsible=0;recursiveResize=0;rounded=0;shadow=0;strokeWidth=1;fontStyle=1" vertex="1" parent="1">
          <mxGeometry x="-50" y="80" width="100" height="560" as="geometry" />
        </mxCell>
        <mxCell id="D9tDxCpBudC2g4aELNdZ-6" value="" style="points=[];perimeter=orthogonalPerimeter;rounded=0;shadow=0;strokeWidth=1;" vertex="1" parent="D9tDxCpBudC2g4aELNdZ-5">
          <mxGeometry x="45" y="70" width="10" height="490" as="geometry" />
        </mxCell>
        <mxCell id="D9tDxCpBudC2g4aELNdZ-16" value="4、返回orderId" style="verticalAlign=bottom;endArrow=block;shadow=0;strokeWidth=1;exitX=-0.033;exitY=0.429;exitDx=0;exitDy=0;exitPerimeter=0;dashed=1;entryX=0.9;entryY=0.441;entryDx=0;entryDy=0;entryPerimeter=0;" edge="1" parent="1">
          <mxGeometry relative="1" as="geometry">
            <mxPoint x="344.66999999999985" y="354.9200000000001" as="sourcePoint" />
            <mxPoint x="174" y="355.09000000000003" as="targetPoint" />
          </mxGeometry>
        </mxCell>
        <mxCell id="D9tDxCpBudC2g4aELNdZ-18" value="6、调用发红包接口" style="verticalAlign=bottom;endArrow=open;endSize=8;shadow=0;strokeWidth=1;exitX=1.027;exitY=0.318;exitDx=0;exitDy=0;exitPerimeter=0;" edge="1" parent="1">
          <mxGeometry relative="1" as="geometry">
            <mxPoint x="735" y="416.17999999999984" as="targetPoint" />
            <mxPoint x="555.0000000000002" y="416.17999999999984" as="sourcePoint" />
          </mxGeometry>
        </mxCell>
        <mxCell id="D9tDxCpBudC2g4aELNdZ-19" value="7、执行完成" style="verticalAlign=bottom;endArrow=block;shadow=0;strokeWidth=1;exitX=0.083;exitY=0.476;exitDx=0;exitDy=0;exitPerimeter=0;dashed=1;entryX=1.159;entryY=0.695;entryDx=0;entryDy=0;entryPerimeter=0;" edge="1" parent="1">
          <mxGeometry relative="1" as="geometry">
            <mxPoint x="735.8299999999999" y="454.31999999999994" as="sourcePoint" />
            <mxPoint x="556.5900000000001" y="455.4000000000001" as="targetPoint" />
          </mxGeometry>
        </mxCell>
        <mxCell id="D9tDxCpBudC2g4aELNdZ-20" value="10、监听Tx，对比链上Tx与服务端订单（userId,orderId,amount,num,status）" style="verticalAlign=bottom;endArrow=block;shadow=0;strokeWidth=1;exitX=-0.143;exitY=0.801;exitDx=0;exitDy=0;exitPerimeter=0;dashed=1;" edge="1" parent="1">
          <mxGeometry relative="1" as="geometry">
            <mxPoint x="733.5700000000002" y="548.48" as="sourcePoint" />
            <mxPoint x="355" y="548.48" as="targetPoint" />
          </mxGeometry>
        </mxCell>
        <mxCell id="D9tDxCpBudC2g4aELNdZ-21" value="11、成功通知（交易成功）" style="verticalAlign=bottom;endArrow=open;dashed=1;endSize=8;shadow=0;strokeWidth=1;exitX=-0.003;exitY=0.869;exitDx=0;exitDy=0;exitPerimeter=0;entryX=0.971;entryY=0.871;entryDx=0;entryDy=0;entryPerimeter=0;" edge="1" parent="1" source="3nuBFxr9cyL0pnOWT2aG-6" target="3nuBFxr9cyL0pnOWT2aG-2">
          <mxGeometry relative="1" as="geometry">
            <mxPoint x="180" y="580.0000000000001" as="targetPoint" />
            <mxPoint x="340" y="580" as="sourcePoint" />
          </mxGeometry>
        </mxCell>
        <mxCell id="D9tDxCpBudC2g4aELNdZ-10" value="发红包" style="verticalAlign=bottom;endArrow=block;shadow=0;strokeWidth=1;entryX=0.081;entryY=0.02;entryDx=0;entryDy=0;entryPerimeter=0;exitX=0.972;exitY=0.019;exitDx=0;exitDy=0;exitPerimeter=0;" edge="1" parent="1" source="D9tDxCpBudC2g4aELNdZ-6" target="3nuBFxr9cyL0pnOWT2aG-2">
          <mxGeometry relative="1" as="geometry">
            <mxPoint x="10" y="160" as="sourcePoint" />
            <mxPoint x="150" y="160" as="targetPoint" />
          </mxGeometry>
        </mxCell>
        <mxCell id="D9tDxCpBudC2g4aELNdZ-22" value="5、封装Tx数据（orderId、userId、amount、num）,唤起钱包" style="verticalAlign=bottom;endArrow=open;endSize=8;shadow=0;strokeWidth=1;exitX=1.167;exitY=0.47;exitDx=0;exitDy=0;exitPerimeter=0;entryX=-0.028;entryY=0.5;entryDx=0;entryDy=0;entryPerimeter=0;" edge="1" parent="1" source="3nuBFxr9cyL0pnOWT2aG-2" target="D9tDxCpBudC2g4aELNdZ-2">
          <mxGeometry relative="1" as="geometry">
            <mxPoint x="540" y="380" as="targetPoint" />
            <mxPoint x="354" y="378.9200000000001" as="sourcePoint" />
          </mxGeometry>
        </mxCell>
        <mxCell id="D9tDxCpBudC2g4aELNdZ-24" value="1" style="rounded=0;whiteSpace=wrap;html=1;" vertex="1" parent="1">
          <mxGeometry x="30" y="850" width="50" height="30" as="geometry" />
        </mxCell>
        <mxCell id="D9tDxCpBudC2g4aELNdZ-25" value="2" style="rounded=0;whiteSpace=wrap;html=1;" vertex="1" parent="1">
          <mxGeometry x="120" y="850" width="50" height="30" as="geometry" />
        </mxCell>
        <mxCell id="D9tDxCpBudC2g4aELNdZ-26" value="3" style="rounded=0;whiteSpace=wrap;html=1;" vertex="1" parent="1">
          <mxGeometry x="210" y="850" width="50" height="30" as="geometry" />
        </mxCell>
        <mxCell id="D9tDxCpBudC2g4aELNdZ-27" value="4" style="rounded=0;whiteSpace=wrap;html=1;" vertex="1" parent="1">
          <mxGeometry x="300" y="850" width="50" height="30" as="geometry" />
        </mxCell>
        <mxCell id="D9tDxCpBudC2g4aELNdZ-28" value="5" style="rounded=0;whiteSpace=wrap;html=1;" vertex="1" parent="1">
          <mxGeometry x="390" y="850" width="50" height="30" as="geometry" />
        </mxCell>
        <mxCell id="D9tDxCpBudC2g4aELNdZ-36" value="" style="edgeStyle=orthogonalEdgeStyle;rounded=0;orthogonalLoop=1;jettySize=auto;html=1;dashed=1;" edge="1" parent="1" source="D9tDxCpBudC2g4aELNdZ-29" target="D9tDxCpBudC2g4aELNdZ-24">
          <mxGeometry relative="1" as="geometry" />
        </mxCell>
        <mxCell id="D9tDxCpBudC2g4aELNdZ-47" value="完成支付" style="edgeLabel;html=1;align=center;verticalAlign=middle;resizable=0;points=[];fontSize=11;fontColor=#006600;" vertex="1" connectable="0" parent="D9tDxCpBudC2g4aELNdZ-36">
          <mxGeometry x="0.1778" relative="1" as="geometry">
            <mxPoint as="offset" />
          </mxGeometry>
        </mxCell>
        <mxCell id="D9tDxCpBudC2g4aELNdZ-29" value="用户1" style="shape=umlActor;verticalLabelPosition=bottom;verticalAlign=top;html=1;outlineConnect=0;" vertex="1" parent="1">
          <mxGeometry x="40" y="700" width="30" height="60" as="geometry" />
        </mxCell>
        <mxCell id="D9tDxCpBudC2g4aELNdZ-37" value="" style="edgeStyle=orthogonalEdgeStyle;rounded=0;orthogonalLoop=1;jettySize=auto;html=1;dashed=1;" edge="1" parent="1" source="D9tDxCpBudC2g4aELNdZ-31" target="D9tDxCpBudC2g4aELNdZ-25">
          <mxGeometry relative="1" as="geometry" />
        </mxCell>
        <mxCell id="D9tDxCpBudC2g4aELNdZ-48" value="未完成支付" style="edgeLabel;html=1;align=center;verticalAlign=middle;resizable=0;points=[];fontSize=11;fontColor=#CC0000;" vertex="1" connectable="0" parent="D9tDxCpBudC2g4aELNdZ-37">
          <mxGeometry x="0.3111" y="1" relative="1" as="geometry">
            <mxPoint as="offset" />
          </mxGeometry>
        </mxCell>
        <mxCell id="D9tDxCpBudC2g4aELNdZ-31" value="用户2" style="shape=umlActor;verticalLabelPosition=bottom;verticalAlign=top;html=1;outlineConnect=0;" vertex="1" parent="1">
          <mxGeometry x="130" y="700" width="30" height="60" as="geometry" />
        </mxCell>
        <mxCell id="D9tDxCpBudC2g4aELNdZ-38" value="" style="edgeStyle=orthogonalEdgeStyle;rounded=0;orthogonalLoop=1;jettySize=auto;html=1;dashed=1;" edge="1" parent="1" source="D9tDxCpBudC2g4aELNdZ-32" target="D9tDxCpBudC2g4aELNdZ-26">
          <mxGeometry relative="1" as="geometry" />
        </mxCell>
        <mxCell id="D9tDxCpBudC2g4aELNdZ-49" value="完成支付" style="edgeLabel;html=1;align=center;verticalAlign=middle;resizable=0;points=[];fontSize=11;fontColor=#006600;" vertex="1" connectable="0" parent="D9tDxCpBudC2g4aELNdZ-38">
          <mxGeometry x="0.2519" y="1" relative="1" as="geometry">
            <mxPoint as="offset" />
          </mxGeometry>
        </mxCell>
        <mxCell id="D9tDxCpBudC2g4aELNdZ-32" value="用户3" style="shape=umlActor;verticalLabelPosition=bottom;verticalAlign=top;html=1;outlineConnect=0;" vertex="1" parent="1">
          <mxGeometry x="220" y="700" width="30" height="60" as="geometry" />
        </mxCell>
        <mxCell id="D9tDxCpBudC2g4aELNdZ-39" value="" style="edgeStyle=orthogonalEdgeStyle;rounded=0;orthogonalLoop=1;jettySize=auto;html=1;dashed=1;" edge="1" parent="1" source="D9tDxCpBudC2g4aELNdZ-33" target="D9tDxCpBudC2g4aELNdZ-27">
          <mxGeometry relative="1" as="geometry" />
        </mxCell>
        <mxCell id="D9tDxCpBudC2g4aELNdZ-50" value="未完成支付" style="edgeLabel;html=1;align=center;verticalAlign=middle;resizable=0;points=[];fontSize=11;fontColor=#CC0000;" vertex="1" connectable="0" parent="D9tDxCpBudC2g4aELNdZ-39">
          <mxGeometry x="0.2889" y="-1" relative="1" as="geometry">
            <mxPoint as="offset" />
          </mxGeometry>
        </mxCell>
        <mxCell id="D9tDxCpBudC2g4aELNdZ-33" value="用户4" style="shape=umlActor;verticalLabelPosition=bottom;verticalAlign=top;html=1;outlineConnect=0;" vertex="1" parent="1">
          <mxGeometry x="310" y="700" width="30" height="60" as="geometry" />
        </mxCell>
        <mxCell id="D9tDxCpBudC2g4aELNdZ-40" value="" style="edgeStyle=orthogonalEdgeStyle;rounded=0;orthogonalLoop=1;jettySize=auto;html=1;dashed=1;" edge="1" parent="1" source="D9tDxCpBudC2g4aELNdZ-34" target="D9tDxCpBudC2g4aELNdZ-28">
          <mxGeometry relative="1" as="geometry" />
        </mxCell>
        <mxCell id="D9tDxCpBudC2g4aELNdZ-51" value="完成支付" style="edgeLabel;html=1;align=center;verticalAlign=middle;resizable=0;points=[];fontSize=11;fontColor=#006600;" vertex="1" connectable="0" parent="D9tDxCpBudC2g4aELNdZ-40">
          <mxGeometry x="0.127" y="1" relative="1" as="geometry">
            <mxPoint as="offset" />
          </mxGeometry>
        </mxCell>
        <mxCell id="D9tDxCpBudC2g4aELNdZ-34" value="用户5" style="shape=umlActor;verticalLabelPosition=bottom;verticalAlign=top;html=1;outlineConnect=0;" vertex="1" parent="1">
          <mxGeometry x="400" y="700" width="30" height="60" as="geometry" />
        </mxCell>
        <mxCell id="D9tDxCpBudC2g4aELNdZ-42" value="" style="edgeStyle=orthogonalEdgeStyle;rounded=0;orthogonalLoop=1;jettySize=auto;html=1;dashed=1;" edge="1" parent="1" source="D9tDxCpBudC2g4aELNdZ-41" target="D9tDxCpBudC2g4aELNdZ-25">
          <mxGeometry relative="1" as="geometry" />
        </mxCell>
        <mxCell id="D9tDxCpBudC2g4aELNdZ-52" value="完成支付" style="edgeLabel;html=1;align=center;verticalAlign=middle;resizable=0;points=[];fontSize=11;fontColor=#006600;" vertex="1" connectable="0" parent="D9tDxCpBudC2g4aELNdZ-42">
          <mxGeometry x="-0.2293" y="2" relative="1" as="geometry">
            <mxPoint as="offset" />
          </mxGeometry>
        </mxCell>
        <mxCell id="D9tDxCpBudC2g4aELNdZ-41" value="用户6" style="shape=umlActor;verticalLabelPosition=bottom;verticalAlign=top;html=1;outlineConnect=0;" vertex="1" parent="1">
          <mxGeometry x="130" y="956" width="30" height="60" as="geometry" />
        </mxCell>
        <mxCell id="D9tDxCpBudC2g4aELNdZ-54" value="" style="edgeStyle=orthogonalEdgeStyle;rounded=0;orthogonalLoop=1;jettySize=auto;html=1;dashed=1;fontSize=11;" edge="1" parent="1" source="D9tDxCpBudC2g4aELNdZ-53" target="D9tDxCpBudC2g4aELNdZ-27">
          <mxGeometry relative="1" as="geometry" />
        </mxCell>
        <mxCell id="D9tDxCpBudC2g4aELNdZ-55" value="完成支付" style="edgeLabel;html=1;align=center;verticalAlign=middle;resizable=0;points=[];fontSize=11;fontColor=#006600;" vertex="1" connectable="0" parent="D9tDxCpBudC2g4aELNdZ-54">
          <mxGeometry x="-0.1842" y="2" relative="1" as="geometry">
            <mxPoint as="offset" />
          </mxGeometry>
        </mxCell>
        <mxCell id="D9tDxCpBudC2g4aELNdZ-53" value="用户7" style="shape=umlActor;verticalLabelPosition=bottom;verticalAlign=top;html=1;outlineConnect=0;" vertex="1" parent="1">
          <mxGeometry x="310" y="956" width="30" height="60" as="geometry" />
        </mxCell>
        <mxCell id="D9tDxCpBudC2g4aELNdZ-56" value="发红包流程图" style="text;html=1;strokeColor=none;fillColor=none;align=left;verticalAlign=middle;whiteSpace=wrap;rounded=0;fontSize=28;fontColor=#000000;fontStyle=1" vertex="1" parent="1">
          <mxGeometry x="-50" y="20" width="190" height="30" as="geometry" />
        </mxCell>
        <mxCell id="D9tDxCpBudC2g4aELNdZ-57" value="9、提交Tx hash" style="verticalAlign=bottom;endArrow=open;endSize=8;shadow=0;strokeWidth=1;exitX=0.996;exitY=0.776;exitDx=0;exitDy=0;exitPerimeter=0;entryX=0.04;entryY=0.77;entryDx=0;entryDy=0;entryPerimeter=0;" edge="1" parent="1">
          <mxGeometry relative="1" as="geometry">
            <mxPoint x="345.4000000000001" y="518.6000000000001" as="targetPoint" />
            <mxPoint x="174.96000000000004" y="519.24" as="sourcePoint" />
          </mxGeometry>
        </mxCell>
        <mxCell id="D9tDxCpBudC2g4aELNdZ-58" value="客户端" style="shape=umlLifeline;perimeter=lifelinePerimeter;container=1;collapsible=0;recursiveResize=0;rounded=0;shadow=0;strokeWidth=1;fontStyle=1" vertex="1" parent="1">
          <mxGeometry x="1240" y="80" width="100" height="560" as="geometry" />
        </mxCell>
        <mxCell id="D9tDxCpBudC2g4aELNdZ-59" value="" style="points=[];perimeter=orthogonalPerimeter;rounded=0;shadow=0;strokeWidth=1;" vertex="1" parent="D9tDxCpBudC2g4aELNdZ-58">
          <mxGeometry x="45" y="70" width="10" height="490" as="geometry" />
        </mxCell>
        <mxCell id="D9tDxCpBudC2g4aELNdZ-60" value="" style="points=[];perimeter=orthogonalPerimeter;rounded=0;shadow=0;strokeWidth=1;" vertex="1" parent="D9tDxCpBudC2g4aELNdZ-58">
          <mxGeometry x="50" y="80" width="10" height="80" as="geometry" />
        </mxCell>
        <mxCell id="D9tDxCpBudC2g4aELNdZ-61" value="1、未登录钱包" style="verticalAlign=bottom;endArrow=block;shadow=0;strokeWidth=1;exitX=1.069;exitY=0.115;exitDx=0;exitDy=0;exitPerimeter=0;" edge="1" parent="D9tDxCpBudC2g4aELNdZ-58" source="D9tDxCpBudC2g4aELNdZ-60" target="D9tDxCpBudC2g4aELNdZ-60">
          <mxGeometry relative="1" as="geometry">
            <mxPoint x="155" y="80" as="sourcePoint" />
            <Array as="points">
              <mxPoint x="90" y="89" />
              <mxPoint x="90" y="132" />
              <mxPoint x="90" y="140" />
            </Array>
          </mxGeometry>
        </mxCell>
        <mxCell id="D9tDxCpBudC2g4aELNdZ-62" value="服务端" style="shape=umlLifeline;perimeter=lifelinePerimeter;container=1;collapsible=0;recursiveResize=0;rounded=0;shadow=0;strokeWidth=1;fontStyle=1" vertex="1" parent="1">
          <mxGeometry x="1420" y="80" width="100" height="560" as="geometry" />
        </mxCell>
        <mxCell id="D9tDxCpBudC2g4aELNdZ-63" value="" style="points=[];perimeter=orthogonalPerimeter;rounded=0;shadow=0;strokeWidth=1;" vertex="1" parent="D9tDxCpBudC2g4aELNdZ-62">
          <mxGeometry x="45" y="80" width="10" height="480" as="geometry" />
        </mxCell>
        <mxCell id="D9tDxCpBudC2g4aELNdZ-64" value="3、查询是否可领取" style="verticalAlign=bottom;endArrow=open;endSize=8;shadow=0;strokeWidth=1;exitX=1.027;exitY=0.318;exitDx=0;exitDy=0;exitPerimeter=0;entryX=0.008;entryY=0.333;entryDx=0;entryDy=0;entryPerimeter=0;" edge="1" parent="D9tDxCpBudC2g4aELNdZ-62" target="D9tDxCpBudC2g4aELNdZ-63">
          <mxGeometry relative="1" as="geometry">
            <mxPoint x="40" y="240" as="targetPoint" />
            <mxPoint x="-125.00000000000003" y="240.58999999999986" as="sourcePoint" />
          </mxGeometry>
        </mxCell>
        <mxCell id="D9tDxCpBudC2g4aELNdZ-65" value="10、完成支付（交易中）" style="verticalAlign=bottom;endArrow=open;dashed=1;endSize=8;exitX=0.033;exitY=0.767;shadow=0;strokeWidth=1;exitDx=0;exitDy=0;exitPerimeter=0;" edge="1" parent="1">
          <mxGeometry relative="1" as="geometry">
            <mxPoint x="1295" y="498.8399999999999" as="targetPoint" />
            <mxPoint x="1665.33" y="498.8399999999999" as="sourcePoint" />
          </mxGeometry>
        </mxCell>
        <mxCell id="D9tDxCpBudC2g4aELNdZ-66" value="2、登录成功" style="verticalAlign=bottom;endArrow=block;shadow=0;strokeWidth=1;exitX=-0.1;exitY=0.378;exitDx=0;exitDy=0;exitPerimeter=0;entryX=0.971;entryY=0.28;entryDx=0;entryDy=0;entryPerimeter=0;dashed=1;" edge="1" parent="1" target="D9tDxCpBudC2g4aELNdZ-59">
          <mxGeometry relative="1" as="geometry">
            <mxPoint x="1664.0000000000005" y="286.20000000000005" as="sourcePoint" />
            <mxPoint x="1289.6666666666665" y="286.20000000000005" as="targetPoint" />
          </mxGeometry>
        </mxCell>
        <mxCell id="D9tDxCpBudC2g4aELNdZ-67" value="1、登录钱包" style="verticalAlign=bottom;endArrow=open;endSize=8;shadow=0;strokeWidth=1;exitX=1.027;exitY=0.318;exitDx=0;exitDy=0;exitPerimeter=0;entryX=0.028;entryY=0.298;entryDx=0;entryDy=0;entryPerimeter=0;" edge="1" parent="1">
          <mxGeometry relative="1" as="geometry">
            <mxPoint x="1665.2799999999997" y="255.19999999999993" as="targetPoint" />
            <mxPoint x="1295.27" y="256.3799999999999" as="sourcePoint" />
          </mxGeometry>
        </mxCell>
        <mxCell id="D9tDxCpBudC2g4aELNdZ-68" value="钱包" style="shape=umlLifeline;perimeter=lifelinePerimeter;container=1;collapsible=0;recursiveResize=0;rounded=0;shadow=0;strokeWidth=1;fontStyle=1" vertex="1" parent="1">
          <mxGeometry x="1620" y="80" width="100" height="560" as="geometry" />
        </mxCell>
        <mxCell id="D9tDxCpBudC2g4aELNdZ-69" value="" style="points=[];perimeter=orthogonalPerimeter;rounded=0;shadow=0;strokeWidth=1;" vertex="1" parent="D9tDxCpBudC2g4aELNdZ-68">
          <mxGeometry x="45" y="40" width="10" height="520" as="geometry" />
        </mxCell>
        <mxCell id="D9tDxCpBudC2g4aELNdZ-70" value="区块链（合约）" style="shape=umlLifeline;perimeter=lifelinePerimeter;container=1;collapsible=0;recursiveResize=0;rounded=0;shadow=0;strokeWidth=1;fontStyle=1" vertex="1" parent="1">
          <mxGeometry x="1810" y="80" width="100" height="560" as="geometry" />
        </mxCell>
        <mxCell id="D9tDxCpBudC2g4aELNdZ-71" value="" style="points=[];perimeter=orthogonalPerimeter;rounded=0;shadow=0;strokeWidth=1;" vertex="1" parent="D9tDxCpBudC2g4aELNdZ-70">
          <mxGeometry x="45" y="80" width="10" height="480" as="geometry" />
        </mxCell>
        <mxCell id="D9tDxCpBudC2g4aELNdZ-72" value="用户" style="shape=umlLifeline;perimeter=lifelinePerimeter;container=1;collapsible=0;recursiveResize=0;rounded=0;shadow=0;strokeWidth=1;fontStyle=1" vertex="1" parent="1">
          <mxGeometry x="1070" y="80" width="100" height="560" as="geometry" />
        </mxCell>
        <mxCell id="D9tDxCpBudC2g4aELNdZ-73" value="" style="points=[];perimeter=orthogonalPerimeter;rounded=0;shadow=0;strokeWidth=1;" vertex="1" parent="D9tDxCpBudC2g4aELNdZ-72">
          <mxGeometry x="45" y="70" width="10" height="490" as="geometry" />
        </mxCell>
        <mxCell id="D9tDxCpBudC2g4aELNdZ-74" value="6、可领取（未领完、未过期）" style="verticalAlign=bottom;endArrow=block;shadow=0;strokeWidth=1;exitX=-0.033;exitY=0.429;exitDx=0;exitDy=0;exitPerimeter=0;dashed=1;entryX=0.9;entryY=0.441;entryDx=0;entryDy=0;entryPerimeter=0;" edge="1" parent="1">
          <mxGeometry relative="1" as="geometry">
            <mxPoint x="1464.67" y="370.9200000000001" as="sourcePoint" />
            <mxPoint x="1294" y="371.09000000000015" as="targetPoint" />
          </mxGeometry>
        </mxCell>
        <mxCell id="D9tDxCpBudC2g4aELNdZ-75" value="7、(userId、orderId)提交数据唤起钱包" style="verticalAlign=bottom;endArrow=open;endSize=8;shadow=0;strokeWidth=1;exitX=0.976;exitY=0.511;exitDx=0;exitDy=0;exitPerimeter=0;entryX=0.028;entryY=0.298;entryDx=0;entryDy=0;entryPerimeter=0;" edge="1" parent="1" source="D9tDxCpBudC2g4aELNdZ-59">
          <mxGeometry relative="1" as="geometry">
            <mxPoint x="1666.0099999999998" y="399.9999999999998" as="targetPoint" />
            <mxPoint x="1296" y="401.17999999999995" as="sourcePoint" />
          </mxGeometry>
        </mxCell>
        <mxCell id="D9tDxCpBudC2g4aELNdZ-76" value="8、调用领红包接口" style="verticalAlign=bottom;endArrow=open;endSize=8;shadow=0;strokeWidth=1;exitX=1.027;exitY=0.318;exitDx=0;exitDy=0;exitPerimeter=0;" edge="1" parent="1">
          <mxGeometry relative="1" as="geometry">
            <mxPoint x="1855" y="432.17999999999984" as="targetPoint" />
            <mxPoint x="1675" y="432.17999999999984" as="sourcePoint" />
          </mxGeometry>
        </mxCell>
        <mxCell id="D9tDxCpBudC2g4aELNdZ-77" value="9、执行完成" style="verticalAlign=bottom;endArrow=block;shadow=0;strokeWidth=1;exitX=0.083;exitY=0.476;exitDx=0;exitDy=0;exitPerimeter=0;dashed=1;entryX=1.159;entryY=0.695;entryDx=0;entryDy=0;entryPerimeter=0;" edge="1" parent="1">
          <mxGeometry relative="1" as="geometry">
            <mxPoint x="1855.83" y="472.31999999999994" as="sourcePoint" />
            <mxPoint x="1676.5900000000001" y="473.4000000000001" as="targetPoint" />
          </mxGeometry>
        </mxCell>
        <mxCell id="D9tDxCpBudC2g4aELNdZ-78" value="12、监听Tx，对比链上Tx与服务端订单（userId,orderId,amount）" style="verticalAlign=bottom;endArrow=block;shadow=0;strokeWidth=1;exitX=-0.143;exitY=0.801;exitDx=0;exitDy=0;exitPerimeter=0;dashed=1;" edge="1" parent="1">
          <mxGeometry relative="1" as="geometry">
            <mxPoint x="1853.5700000000002" y="565.48" as="sourcePoint" />
            <mxPoint x="1475" y="565.48" as="targetPoint" />
          </mxGeometry>
        </mxCell>
        <mxCell id="D9tDxCpBudC2g4aELNdZ-79" value="13、成功通知（交易成功）" style="verticalAlign=bottom;endArrow=open;dashed=1;endSize=8;shadow=0;strokeWidth=1;exitX=-0.003;exitY=0.869;exitDx=0;exitDy=0;exitPerimeter=0;entryX=0.971;entryY=0.871;entryDx=0;entryDy=0;entryPerimeter=0;" edge="1" parent="1" source="D9tDxCpBudC2g4aELNdZ-63" target="D9tDxCpBudC2g4aELNdZ-59">
          <mxGeometry relative="1" as="geometry">
            <mxPoint x="1300" y="580.0000000000001" as="targetPoint" />
            <mxPoint x="1460" y="580" as="sourcePoint" />
          </mxGeometry>
        </mxCell>
        <mxCell id="D9tDxCpBudC2g4aELNdZ-80" value="领红包" style="verticalAlign=bottom;endArrow=block;shadow=0;strokeWidth=1;entryX=0.081;entryY=0.02;entryDx=0;entryDy=0;entryPerimeter=0;exitX=0.972;exitY=0.019;exitDx=0;exitDy=0;exitPerimeter=0;" edge="1" parent="1" source="D9tDxCpBudC2g4aELNdZ-73" target="D9tDxCpBudC2g4aELNdZ-59">
          <mxGeometry relative="1" as="geometry">
            <mxPoint x="1130" y="160" as="sourcePoint" />
            <mxPoint x="1270" y="160" as="targetPoint" />
          </mxGeometry>
        </mxCell>
        <mxCell id="D9tDxCpBudC2g4aELNdZ-81" value="4、调用查询接口" style="verticalAlign=bottom;endArrow=open;endSize=8;shadow=0;strokeWidth=1;exitX=0.9;exitY=0.354;exitDx=0;exitDy=0;exitPerimeter=0;entryX=0;entryY=0.353;entryDx=0;entryDy=0;entryPerimeter=0;" edge="1" parent="1" source="D9tDxCpBudC2g4aELNdZ-63" target="D9tDxCpBudC2g4aELNdZ-71">
          <mxGeometry relative="1" as="geometry">
            <mxPoint x="1850" y="330" as="targetPoint" />
            <mxPoint x="1490" y="330" as="sourcePoint" />
          </mxGeometry>
        </mxCell>
        <mxCell id="D9tDxCpBudC2g4aELNdZ-82" value="5、可领取" style="verticalAlign=bottom;endArrow=block;shadow=0;strokeWidth=1;exitX=-0.1;exitY=0.378;exitDx=0;exitDy=0;exitPerimeter=0;entryX=0.967;entryY=0.398;entryDx=0;entryDy=0;entryPerimeter=0;dashed=1;" edge="1" parent="1" target="D9tDxCpBudC2g4aELNdZ-63">
          <mxGeometry relative="1" as="geometry">
            <mxPoint x="1854.6400000000003" y="350" as="sourcePoint" />
            <mxPoint x="1485.35" y="350.99999999999994" as="targetPoint" />
          </mxGeometry>
        </mxCell>
        <mxCell id="D9tDxCpBudC2g4aELNdZ-83" value="领红包流程图" style="text;html=1;strokeColor=none;fillColor=none;align=left;verticalAlign=middle;whiteSpace=wrap;rounded=0;fontSize=28;fontColor=#000000;fontStyle=1" vertex="1" parent="1">
          <mxGeometry x="1070" y="20" width="190" height="30" as="geometry" />
        </mxCell>
        <mxCell id="D9tDxCpBudC2g4aELNdZ-84" value="11、提交Tx hash" style="verticalAlign=bottom;endArrow=open;endSize=8;shadow=0;strokeWidth=1;exitX=0.996;exitY=0.776;exitDx=0;exitDy=0;exitPerimeter=0;entryX=0.04;entryY=0.77;entryDx=0;entryDy=0;entryPerimeter=0;" edge="1" parent="1" source="D9tDxCpBudC2g4aELNdZ-59" target="D9tDxCpBudC2g4aELNdZ-63">
          <mxGeometry relative="1" as="geometry">
            <mxPoint x="1666.0099999999998" y="528.9999999999998" as="targetPoint" />
            <mxPoint x="1296" y="530.1799999999998" as="sourcePoint" />
          </mxGeometry>
        </mxCell>
      </root>
    </mxGraphModel>
  </diagram>
</mxfile>
